{"title":"City That Never Sleeps 1953.avi","uid":5883725,"size":886979070,"categoryP":"video","categoryS":"movies","magnet":"?xt=urn:btih:0db860527d03713bb95b3779b0312f9e268c77c6&amp;dn=City+That+Never+Sleeps+1953.avi&amp;tr=udp%3A%2F%2Ftracker.openbittorrent.com%3A80&amp;tr=udp%3A%2F%2Fopen.demonii.com%3A1337&amp;tr=udp%3A%2F%2Ftracker.coppersurfer.tk%3A6969&amp;tr=udp%3A%2F%2Fexodus.desync.com%3A6969","seeders":1,"leechers":0,"uploader":null,"files":1,"time":1286990491,"description":"Chicago cop Johnny Kelly, dissatisfied with his job and marriage, would like to run away with his stripper girlfriend Angel Face, but keeps getting cold feet. During one crowded night, Angel Face decides she's had enough vacillation, and crooked lawyer Biddel has an illegal mission for Johnny that could put him in a financial position to act. But other, conflicting schemes are also in progress...\n\nGig Young\t\tJohnny Kelly\nMala Powers\t\tSally (Angel Face) Conners\nWilliam Talman\t\tHayes Stewart\nEdward Arnold\t\tPenrod Biddel\nChill Wills\t\tSgt. Joe\nTom Poston\t\tDetective\n\n   Video #0\n      ID : 0\n      Format : MPEG-4 Visual\n      Format profile : AdvancedSimple@L5\n      Format settings, BVOP : Yes\n      Format settings, QPel : Yes\n      Format settings, GMC : 3 warppoints\n      Format settings, Matrix : Default (H.263)\n      Codec ID : XVID\n      Codec ID/Hint : XviD\n      Duration : 1h 26mn\n      Bit rate : 1 199 Kbps\n      Width : 768 pixels\n      Height : 576 pixels\n      Display aspect ratio : 4:3\n      Frame rate : 25.000 fps\n      Resolution : 24 bits\n      Colorimetry : 4:2:0\n      Scan type : Progressive\n      Bits/(Pixel*Frame) : 0.108\n      Stream size : 741 MiB (88%)\n      Writing library : XviD 1.2.0SMP (UTC 2006-01-08)\n   Audio #1\n      ID : 1\n      Format : MPEG Audio\n      Format version : Version 1\n      Format profile : Layer 3\n      Codec ID : 55\n      Codec ID/Hint : MP3\n      Duration : 1h 26mn\n      Bit rate mode : Constant\n      Bit rate : 160 Kbps\n      Channel(s) : 2 channels\n      Sampling rate : 48.0 KHz\n      Resolution : 16 bits\n      Stream size : 98.9 MiB (12%)\n      Alignment : Split accross interleaves\n      Interleave, duration : 40 ms (1.00 video frame)\n      Interleave, preload duration : 500 ms\n","torrent":{"xt":"urn:btih:0db860527d03713bb95b3779b0312f9e268c77c6","amp;dn":"City+That+Never+Sleeps+1953.avi","amp;tr":["udp%3A%2F%2Ftracker.openbittorrent.com%3A80","udp%3A%2F%2Fopen.demonii.com%3A1337","udp%3A%2F%2Ftracker.coppersurfer.tk%3A6969","udp%3A%2F%2Fexodus.desync.com%3A6969"],"infoHash":"0db860527d03713bb95b3779b0312f9e268c77c6","infoHashBuffer":{"type":"Buffer","data":[13,184,96,82,125,3,113,59,185,91,55,121,176,49,47,158,38,140,119,198]},"announce":[],"urlList":[]}}